<svg width="24" height="24" xmlns="http://www.w3.org/2000/svg">
    <path d="M4 12.5c.167 0 .308.015.396.104.089.088.104.23.104.396v6.5h15V13c0-.167.015-.308.104-.396.563-.104.704-.089.792 0 .089.088.104.23.104.396v6c0 .413-.17.787-.441 1.059A1.495 1.495 0 0 1 19 20.5H5c-.412 0-.787-.17-1.059-.441A1.495 1.495 0 0 1 3.5 19v-6c0-.167.015-.308.104-.396.088-.089.23-.104.396-.104zm7.604-9.896c.563-.104.704-.089.792 0 .089.088.104.23.104.396v10.874l3.42-3.408c.147-.111.283-.185.418-.185.114 0 .212.067.308.163s.163.194.163.308c0 .135-.074.27-.185.417L12 15.793l-4.618-4.619c-.11-.153-.18-.295-.18-.433 0-.111.06-.206.152-.297.09-.092.186-.153.297-.153.138 0 .28.071.434.18l3.415 3.403V3c0-.167.015-.308.104-.396z" fill="currentColor" stroke="currentColor" fill-rule="evenodd"/>
</svg>
