<svg width="24" height="24" xmlns="http://www.w3.org/2000/svg" xmlns:xlink="http://www.w3.org/1999/xlink">
    <defs>
        <path d="M10 0c5.523 0 10 4.477 10 10s-4.477 10-10 10S0 15.523 0 10 4.477 0 10 0zM5.672 11.201H1.685a8.408 8.408 0 0 0 6.502 7.003A15.142 15.142 0 0 1 5.672 11.2zm12.643 0H14.33a15.122 15.122 0 0 1-2.517 7.003 8.408 8.408 0 0 0 6.502-7.004zm-5.599 0h-5.43A12.614 12.614 0 0 0 10 17.6a12.61 12.61 0 0 0 2.716-6.4zM8.187 1.795l-.147.034A8.408 8.408 0 0 0 1.685 8.8h3.984a15.122 15.122 0 0 1 2.518-7.004zM10 2.4a12.61 12.61 0 0 0-2.717 6.4h5.43A12.614 12.614 0 0 0 10 2.4zm1.813-.604.034.05a15.142 15.142 0 0 1 2.48 6.954h3.988a8.408 8.408 0 0 0-6.502-7.004z" id="a"/>
    </defs>
    <use fill="currentColor" fill-rule="nonzero" xlink:href="#a" transform="translate(2 2)"/>
</svg>
