<svg width="24" height="24" xmlns="http://www.w3.org/2000/svg">
    <g fill="currentColor" fill-rule="evenodd">
        <path d="M23 19.667V21H2V5h1.313v14.667z"/>
        <path d="M22 6.351v4.777a.329.329 0 0 1-.207.323c-.138.063-.264.035-.377-.082l-1.284-1.328-6.718 6.95a.33.33 0 0 1-.244.11.33.33 0 0 1-.244-.11l-2.473-2.559L6.038 19 4 16.892l6.209-6.423a.33.33 0 0 1 .244-.11.33.33 0 0 1 .244.11l2.473 2.558 4.924-5.095-1.284-1.328c-.113-.117-.14-.247-.08-.39.06-.143.165-.214.314-.214h4.616c.1 0 .18.033.244.099s.096.15.096.252z"/>
    </g>
</svg>
